<svg width="710" height="220" xmlns="http://www.w3.org/2000/svg"><style>path,rect{stroke:#000;stroke-width:2}ellipse.red,rect.red{fill:#f99}ellipse.yellow,rect.yellow{fill:#ff9}ellipse.green,rect.green{fill:#9f9}ellipse.teal,rect.teal{fill:#9ff}ellipse.blue,rect.blue{fill:#99f}ellipse.purple,rect.purple{fill:#f9f}.dot-blue,.dot-green,.dot-red{stroke-width:3}.dot-red{stroke:#f99;fill:#ffe5e5}.dot-green{stroke:#9f9;fill:#e5ffe5}.dot-blue{stroke:#99f;fill:#e5e5ff}text{text-anchor:middle;font-family:Helvetica,Arial,sans-serif;font-size:22px}ellipse,line{stroke-width:2;stroke:#000}.black,text{fill:#000}.white,ellipse{fill:#fff}.order{font-size:18px}</style><g transform="translate(40 60)"><text y="-37" class="order">Order 0</text><path class="dot-blue" d="M-30-30h60v60h-60z"/><ellipse ry="20" rx="20"/><text y="7">13</text></g><g transform="translate(130 60)"><text y="-37" x="45" class="order">Order 1</text><path class="dot-green" d="M-30-30h150v180H-30z"/><path d="M0 0v60"/><ellipse ry="20" rx="20"/><text y="7">4</text><g transform="translate(0 60)"><ellipse ry="20" rx="20"/><text y="7">10</text></g><g transform="translate(90)"><path d="M0 0v60"/><ellipse ry="20" rx="20" class="black"/><text y="7" class="white">2</text><g transform="translate(0 60)"><path d="M0 0v60"/><ellipse ry="20" rx="20"/><text y="7">7</text><g transform="translate(0 60)"><ellipse ry="20" rx="20"/><text y="7">11</text></g></g></g></g><g transform="translate(370 60)"><text y="-37" x="120" class="order">Order 2</text><path class="dot-red" d="M-90-30h420v180H-90z"/><path d="M0 0v60"/><path d="M0 0l-60 60"/><ellipse ry="20" rx="20"/><text y="7">1</text><g transform="translate(0 60)"><ellipse ry="20" rx="20"/><text y="7">9</text></g><g transform="translate(-60 60)"><ellipse ry="20" rx="20" class="black"/><text y="7" class="white">7</text></g><g transform="translate(150)"><path d="M0 0v60"/><path d="M0 0l-60 60"/><ellipse ry="20" rx="20"/><text y="7">3</text><g transform="translate(0 60)"><ellipse ry="20" rx="20"/><text y="7">16</text></g><g transform="translate(-60 60)"><path d="M0 0v60"/><ellipse ry="20" rx="20"/><text y="7">6</text><g transform="translate(0 60)"><ellipse ry="20" rx="20"/><text y="7">8</text></g></g></g><g transform="translate(300)"><path d="M0 0v60"/><path d="M0 0l-60 60"/><ellipse ry="20" rx="20" class="black"/><text y="7" class="white">2</text><g transform="translate(0 60)"><path d="M0 0v60"/><ellipse ry="20" rx="20"/><text y="7">4</text><g transform="translate(0 60)"><ellipse ry="20" rx="20"/><text y="7">7</text></g></g><g transform="translate(-60 60)"><path d="M0 0v60"/><ellipse ry="20" rx="20" class="black"/><text y="7" class="white">5</text><g transform="translate(0 60)"><ellipse ry="20" rx="20"/><text y="7">13</text></g></g></g></g></svg>